<?xml version="1.0" standalone="no"?>
<!DOCTYPE svg PUBLIC "-//W3C//DTD SVG 20010904//EN"
 "http://www.w3.org/TR/2001/REC-SVG-20010904/DTD/svg10.dtd">
<svg version="1.0" xmlns="http://www.w3.org/2000/svg"
 width="300.000000pt" height="300.000000pt" viewBox="0 0 300.000000 300.000000"
 preserveAspectRatio="xMidYMid meet">

<g transform="translate(0.000000,300.000000) scale(0.100000,-0.100000)"
fill="#000000" stroke="none">
<path d="M1106 1051 c-10 -16 40 -61 68 -61 13 0 50 10 81 22 l56 21 28 -21
c36 -26 49 -16 19 15 -25 27 -58 29 -118 8 -57 -20 -80 -19 -106 6 -14 13 -24
17 -28 10z"/>
<path d="M721 931 c-96 -50 -130 -74 -144 -99 -11 -19 -16 -37 -11 -42 5 -5
80 -44 167 -88 136 -68 161 -77 180 -68 12 7 23 20 25 31 2 17 -20 31 -129 83
l-132 62 22 24 c12 13 50 36 84 51 81 36 117 62 117 85 0 18 -20 31 -43 29 -7
-1 -68 -31 -136 -68z"/>
<path d="M2029 984 c-11 -14 -10 -19 9 -34 12 -10 53 -28 92 -39 65 -20 110
-48 110 -69 0 -5 -17 -20 -37 -34 -168 -113 -182 -125 -167 -149 13 -21 49 -4
151 72 59 44 116 85 126 90 52 28 -9 90 -148 149 -79 33 -116 37 -136 14z"/>
<path d="M1189 881 c-32 -32 -34 -40 -19 -90 30 -105 144 -108 163 -5 8 42 -9
101 -33 114 -36 19 -80 12 -111 -19z m85 -54 c16 -25 -16 -56 -38 -37 -19 15
-20 32 -4 48 15 15 28 11 42 -11z"/>
<path d="M1662 887 c-37 -39 -34 -107 7 -148 36 -35 70 -37 108 -5 24 21 27
31 27 81 0 48 -4 60 -23 76 -33 27 -92 25 -119 -4z m76 -75 c4 -28 -24 -41
-44 -20 -20 20 -7 50 20 46 13 -2 22 -12 24 -26z"/>
<path d="M1440 585 c45 -59 110 -60 141 -3 11 20 10 20 -12 4 -30 -21 -88 -21
-119 1 -24 17 -25 17 -10 -2z"/>
<path d="M1247 481 c-112 -59 -162 -63 -230 -16 l-36 24 -3 -22 c-6 -38 11
-107 33 -139 12 -17 47 -42 77 -55 47 -22 64 -25 136 -21 95 5 145 27 199 87
37 41 47 83 31 126 -20 51 -125 59 -207 16z"/>
<path d="M1565 498 c-36 -21 -46 -41 -41 -86 11 -116 197 -196 350 -150 59 18
111 75 124 135 6 27 9 59 6 70 -6 21 -6 21 -41 -3 -68 -46 -117 -42 -234 18
-60 30 -128 37 -164 16z"/>
</g>
</svg>
